<?xml version="1.0" encoding="UTF-8" standalone="no"?>
<svg viewBox="0 0 186.23007 530.01202" xmlns="http://www.w3.org/2000/svg">
<defs>
<clipPath id="clipPath7635">
<path d="m399.74484,208.42801h147.48907v198.96564h-147.48907z" fill-rule="evenodd"/>
</clipPath>
<linearGradient gradientTransform="matrix(-1,0,0,1,-667.7874,-229.7867)" gradientUnits="userSpaceOnUse" id="linearGradient7609" x1="105.14001" x2="134.69379" y1="192.3483" y2="138.18379">
<stop offset="0" stop-color="#25231e"/>
<stop offset="1" stop-color="#645d50" stop-opacity="0"/>
</linearGradient>
</defs>
<g transform="translate(850.2579,229.7867)">
<path d="m-714.25054-103.97642c-7.86121-8.69222 1.36078,194.54107 22.55899,238.00216-43.51113,13.75738-101.09553,20.86179-128.3283-20.36664l14.87712-220.6776 90.89219,3.04208z" fill="#4d4d4d" fill-rule="evenodd" stroke="#000" stroke-width=".90984"/>
<path clip-path="url(#clipPath7635)" d="m415.42119,222.39698c-10.74717,55.8771-10.81315,108.72169 1.93992,163.5947 11.104,29.14698 17.62454,62.35241 4.7875,92.01005l-38.10539,20.21693c-.98375,15.52377 52.52514,3.92564 66.18305,3.15887 1.66091-12.1428-2.59923-24.21633-.71213-36.43713 1.16905-15.15226 4.0174-30.12919 9.43245-44.44677 10.20807-24.1425-1.24497-31.50313-13.39994-53.68494l8.69071-77.07694c12.08963,27.46929 23.54465,55.21932 36.0373,82.51031 4.44223,26.44143 13.57698,49.2773 22.26152,74.99995 3.78976,16.71509 8.76709,34.78245 3.10401,51.51415l-14.60674,22.20652c3.11105,2.27005 4.39236,8.76805 8.84949,7.92771 23.13156-3.12714 26.1597.90802 37.21214-19.35354-1.69173-14.92076-6.15492-29.5057-7.02475-44.56583 9.04757-61.35115 8.57319-55.93867-20.79077-109.40651 2.21878-29.68499-12.78999-100.38171-28.6043-134.34256-16.93573.21059-58.31834.96444-75.25407,1.17503z" fill="#1a1a1a" fill-rule="evenodd" stroke="#000" stroke-width=".90984" transform="translate(-1221.556,-230.7035)"/>
<path d="m-799.58779,14.75034 10.69625,25.90292 20.72398,13.89913 2.67407,5.686" fill="none" stroke="#000" stroke-width=".90984"/>
<path d="m-754.79725,13.48679c-9.55463,6.58087-13.38051,15.32729-14.03882,25.27114" fill="none" stroke="#000" stroke-width=".90984"/>
<path d="m-767.49904,48.86638c2.79676-8.34207 3.24474-17.23908 12.70179-24.00758" fill="none" stroke="#000" stroke-width=".90984"/>
<path d="m-721.70572-56.32473-7.01942-18.63747" fill="none" stroke="#000" stroke-width=".90984"/>
<path d="m-805.60444-28.2106c31.16409,6.05757 51.04867-1.45172 72.86821-6.63367l2.00554,24.32347c-24.2894,4.15196-58.27227,10.33657-75.87651-.31589l1.00276-17.37391z" fill="#808000" fill-rule="evenodd" stroke="#000" stroke-width=".90984"/>
<path d="m-778.74829-25.9531-.46003,20.74995" fill="none" stroke="#000" stroke-width=".92218"/>
<path d="m-798.58502-26.94704 .33426,19.1113" fill="none" stroke="#000" stroke-width=".90984"/>
<path d="m-799.91096,163.66926c14.64729,10.38328 27.36858,5.59849 39.92267-.50304" fill="none" stroke="#000" stroke-linecap="round" stroke-linejoin="round" stroke-width=".90984"/>
<path d="m-725.92095,162.16011c12.72248,7.20399 25.78952,9.52354 39.92267-3.26982" fill="none" stroke="#000" stroke-linecap="round" stroke-linejoin="round" stroke-width=".90984"/>
<path d="m-820.45885-94.33703 5.11113,29.62138 4.79071,7.04271 2.66152,21.63117" fill="none" stroke="#000" stroke-linecap="round" stroke-linejoin="round" stroke-width=".90984"/>
<path d="m-706.22576-105.46274-31.93814,24.64948-20.22748,51.31115" fill="none" stroke="#000" stroke-linecap="round" stroke-linejoin="round" stroke-width=".90984"/>
<g fill="#500" stroke="#000" transform="matrix(.93592,0,0,.88449,-834.1471,-355.6959)">
<path d="m78.55307,616.27337c-8.75587,33.15588-11.56455,59.17897-9.93932,92.76699l-56.32283,5.52185-17.11772-7.1784c47.70028-23.29901 56.26942-34.16827 46.93569-91.66263l36.44419.55219z" fill="#500" fill-rule="evenodd" stroke="#000" stroke-linecap="round" stroke-linejoin="round"/>
<path d="m33.27393,585.35103c15.04905,10.65357 28.6642,4.18789 46.38351,1.65656 1.42804,2.74875 3.71793,5.16898 4.58751,8.13061 3.04736,16.11046 4.6333,12.80691-7.34844,22.79172-17.19452,1.63747-25.20303,2.8142-40.86166-3.31311-1.87197-8.48637-5.03899-15.24601-2.76092-29.26578z" fill="#500" fill-rule="evenodd" stroke="#000" stroke-linecap="round" stroke-linejoin="round"/>
</g>
<path d="m-719.8002,184.0192c12.38181,31.23428 16.0376,51.97022 16.02084,84.00508l-15.50405,21.97809 5.68483,9.76805c26.51328-2.91777 30.7865,1.16151 41.34413-20.02449-8.25002-29.94935-6.78387-53.76476-4.715-83.81812l-3.03702-14.35063-39.79373,2.44202z" fill="#500" fill-rule="evenodd" stroke="#000" stroke-linecap="round" stroke-linejoin="round" stroke-width=".90984"/>
<path d="m-727.55223,161.55273c21.02808,10.28774 27.02567,7.5025 43.92816-3.90721 5.07632,8.14002 8.67725,16.28005 8.26881,24.42007-23.94426,13.42512-22.7684,10.42976-48.06254,2.93041-3.62761-6.39719-4.63422-14.44569-4.13443-23.44327z" fill="#500" fill-rule="evenodd" stroke="#000" stroke-linecap="round" stroke-linejoin="round" stroke-width=".90984"/>
<path d="m-756.23472-54.07663-30.2329-6.59343-19.89686,3.17461" fill="none" stroke="#000" stroke-linecap="round" stroke-linejoin="round" stroke-width=".90984"/>
<path d="m-816.09841-101.88563c-13.30744,12.9229-9.9511,13.81119-9.29019,31.34893-1.89143,11.18197-1.40151,22.54942-7.551,32.21293l-6.51917.54327-4.34611,11.40854c18.3934,4.87959 19.67278,14.19893 38.02847,8.69221-.05342-3.74517.10633-7.51232-.07888-11.24392 2.27476-22.38271-.36902-41.98482-8.10467-61.20043l-2.13845-11.76153z" fill="#4d5869" fill-rule="evenodd" stroke="#000" stroke-linecap="round" stroke-linejoin="round"/>
<path d="m-763.12535-166.14814 9.95953,27.92288 3.69209,22.75271c-21.08838,18.2401-23.77978,21.1905-39.30384,8.40386 3.54186-10.16852 5.97864-17.38446 5.6786-28.40073l-5.79875-4.29982 25.77237-26.3789z" fill="#ffae53" fill-rule="evenodd" stroke="#000" stroke-linecap="round" stroke-linejoin="round" stroke-width="1.03792"/>
<path d="m-745.33831-118.31935c-.12578-3.21766-.80614-3.98686-3.53122-6.51917-20.20394,10.70254-27.83805,10.56233-37.89265,5.84008-3.80285,5.61373-7.06244,12.58561-10.86529,18.19934l10.32203,26.07666 15.21138-.54326 28.79299-29.87951c.54326-3.98393-2.5805-9.19021-2.03724-13.17414z" fill="#4d5869" fill-rule="evenodd" stroke="#000" stroke-linecap="round" stroke-linejoin="round"/>
<path d="m-775.35364-92.65014c1.18847,4.74422-4.00725,25.77528-10.26176,13.71341l5.1144-14.4817c.52475-5.20008 4.23721-4.02821 5.14736.76829z" fill="#969796" fill-rule="evenodd" stroke="#000" stroke-linecap="round" stroke-linejoin="round"/>
<path d="m-744.60851-119.26137c14.08533,4.60975 23.55293,9.21949 37.63826,13.82924l-6.91462,38.41455c-17.08729,13.0749-16.12683,13.7914-19.97557,33.80481l-49.93891,13.82924-23.04873-8.45122-3.84146-30.73162c-8.03084-8.11439-5.08253-19.16071-4.48461-29.77911l4.48461-20.9281 23.04873-7.68291c-2.9763,8.72692-7.60962,18.37443-3.6133,27.55683 2.12815,4.01261 5.67986,9.24655 10.14085,9.76541 11.45455-2.95021 21.26292-11.28222 25.74143-22.26101 2.53571-5.60676 8.76726-11.56051 10.76332-17.36611z" fill="#645d50" fill-rule="evenodd" stroke="#000" stroke-linecap="round" stroke-linejoin="round"/>
<path d="m-744.60851-119.26137c14.08533,4.60975 23.55293,9.21949 37.63826,13.82924l-6.91462,38.41455c-17.08729,13.0749-16.12683,13.7914-19.97557,33.80481l-49.93891,13.82924-23.04873-8.45122-3.84146-30.73162c-8.03084-8.11439-5.08253-19.16071-4.48461-29.77911l4.48461-20.9281 23.04873-7.68291c-2.9763,8.72692-7.60962,18.37443-3.6133,27.55683 2.12815,4.01261 5.67986,9.24655 10.14085,9.76541 11.45455-2.95021 21.26292-11.28222 25.74143-22.26101 2.53571-5.60676 8.76726-11.56051 10.76332-17.36611z" fill="url(#linearGradient7609)" fill-rule="evenodd" stroke="#000" stroke-linecap="round" stroke-linejoin="round"/>
<path d="m-701.46976-104.60195c12.66691,6.71414 11.4121,14.00674 14.66812,27.38236-2.75147,11.93721 2.54048,21.98902 5.9759,32.91992l7.06243,2.71631c2.3541,7.47444 3.51293,13.36483 1.08653,20.64405-2.97527-1.05529-5.91285-2.33734-8.9113-3.25316l-18.25189.53683-7.60569,8.14894c-8.96604-4.50236-8.96968-6.7495-9.4181-16.22655 .69468-1.56303 2.20425-4.48422 2.89893-6.04725-3.71953-7.85698-8.80258-14.79535-13.64386-21.94069l-4.28384-14.45799 7.60569-23.36034c4.06601-2.14437 8.06045-4.54276 12.17071-6.53011l10.64637-.53232z" fill="#4d5869" fill-rule="evenodd" stroke="#000" stroke-linecap="round" stroke-linejoin="round"/>
<path d="m-836.1992-25.28544c-4.98551,15.20835-3.5823,34.1017-3.80282,49.98027l19.01422,4.3461 12.49507-47.80719c-9.41658-1.44871-18.28989-5.07047-27.70647-6.51918z" fill="#ffae53" fill-rule="evenodd" stroke="#000" stroke-linecap="round" stroke-linejoin="round"/>
<g transform="matrix(-1,0,0,1,-366.0044,-203.71)">
<path d="m422.55455,74.9677-4.78501,10.07371 29.10973,7.86188 2.43084-3.9501-2.93726-1.3167-10.63488-4.55781-4.96295-3.9501-6.88734-5.57065-1.33313,1.40977z" fill="#4c3b28" fill-rule="evenodd"/>
<path d="m422.30271,55.82766h3.27395l1.25922,5.2887-.64877,3.17815-4.38809,7.39925-2.77027,1.00737-2.01474-1.25921" fill="#85817d" fill-rule="evenodd"/>
<path d="m421.54718,72.19743 7.5498,6.40283 5.29966-7.60729 1.75742-2.57318-9.82187-6.29607" fill="#4f4c48" fill-rule="evenodd"/>
<path d="m429.00391,78.34021 5.38725,4.93831 6.20026,2.26658 3.52306-7.39925 3.3725-2.9263-.75553-3.77764-2.17077-2.3186-1.60687,2.06675-5.2887-1.7629v-2.51843l-4.4483,3.08507" fill="#85817d" fill-rule="evenodd"/>
<path d="m446.26539,75.87426-2.84375,1.625-2.40625,4.875 .59375.21875-1.82423,2.36191 10.4202,5.01198 4.34153-7.18639 1-3.28125-8.06892-3.93639-1.21233.31139z" fill="#4f4c48" fill-rule="evenodd"/>
<path d="m455.79779,78.24166 2.51843-4.28133 3.5258,1.7629 2.01474,3.5258-7.30344,13.85135-4.28133-1.25921-1.25921-2.77027" fill="#85817d" fill-rule="evenodd"/>
<path d="m444.00498,70.99844 15.31861-34.56268-2.71826-1.36324-6.09624-1.91072-13.50096,34.91033c.92523,2.93323 4.24237,2.72735 6.99685,2.9263z" fill="#585034" fill-rule="evenodd"/>
<path d="m450.00541,32.65812v-1.7629l4.53317-11.58477 5.03685-.75553 5.03686,3.77764v2.26658l-4.02949,11.33292-1.51105.75553" fill="#85817d" fill-rule="evenodd"/>
<path d="m422.30271,55.82766h3.27395l1.25922,5.2887-1.7629,2.26658-3.27396,8.31081-2.77027,1.00737-1.20446-.85408" fill="none" stroke="#000" stroke-linecap="round" stroke-linejoin="round"/>
<path d="m421.54718,72.19743 8.56265,5.2887 3.27396-7.30344 2.77027-1.7629-9.82187-6.29607" fill="none" stroke="#000" stroke-linecap="round" stroke-linejoin="round"/>
<path d="m428.59877,78.74535 5.79239,4.53317 5.2887,2.26658 4.02948-8.31081 3.77764-2.01474-.75553-3.77764-1.25921-2.01474-2.51843,1.7629-5.2887-1.7629v-2.51843l-1.51105.75553" fill="none" stroke="#000" stroke-linecap="round" stroke-linejoin="round"/>
<path d="m447.99067,75.97508 7.55528,3.5258-1.00737,3.27396-3.5258,6.79975-9.82187-6.54791" fill="none" stroke="#000" stroke-linecap="round" stroke-linejoin="round"/>
<path d="m429.60615,76.7306-1.25922,2.26658" fill="none" stroke="#000" stroke-linecap="round" stroke-linejoin="round"/>
<path d="m424.31745,74.71586 6.79975,6.54791 11.83661,5.03686 5.79238,3.02211-.25184-1.25921" fill="none" stroke="#000" stroke-linecap="round" stroke-linejoin="round"/>
<path d="m448.74619,89.82643-1.00737,2.01474" fill="none" stroke="#000" stroke-linecap="round" stroke-linejoin="round"/>
<path d="m422.55455,74.9677-4.78501,10.07371" fill="none" stroke="#000" stroke-linecap="round" stroke-linejoin="round"/>
<path d="m455.79779,78.24166 2.51843-4.28133 3.5258,1.7629 2.01474,3.5258-7.30344,13.85135-4.28133-1.25921-1.25921-2.77027" fill="none" stroke="#000" stroke-linecap="round" stroke-linejoin="round"/>
<path d="m445.2204,69.17532 14.10319-32.73956-3.02211-.75553-5.79239-2.51843-13.09582,33.99877" fill="none" stroke="#000" stroke-linecap="round" stroke-linejoin="round"/>
<path d="m450.00541,32.65812v-1.7629l4.53317-11.58477 5.03685-.75553 5.03686,3.77764v2.26658l-4.02949,11.33292-1.51105.75553" fill="none" stroke="#000" stroke-linecap="round" stroke-linejoin="round"/>
<path d="m455.79779,20.82151 3.5258,3.27396h4.53317" fill="none" stroke="#000" stroke-linecap="round" stroke-linejoin="round"/>
<path d="m446.47961,72.95296-4.28133,2.01474-6.29607-3.5258" fill="none" stroke="#000" stroke-linecap="round" stroke-linejoin="round"/>
<path d="m444.96855,77.23429 7.0516,3.5258" fill="none" stroke="#000" stroke-linecap="round" stroke-linejoin="round"/>
<path d="m432.62826,70.18269-5.03686-4.02949" fill="none" stroke="#000" stroke-linecap="round" stroke-linejoin="round"/>
</g>
<path d="m-785.67565-115.46722c-6.75001,10.85342-7.42238,21.87386-8.14896,34.22561l-17.9277,5.43264c-3.02029-13.70738-5.43843-23.8747-2.71631-37.4852 9.41399-3.98909 18.76864-4.83726 29.60786-5.9759-.72435,1.4487-.09054,2.35415-.81489,3.80285z" fill="#4d4d4d" fill-rule="evenodd" stroke="#000" stroke-linecap="round" stroke-linejoin="round"/>
<path d="m48.18291,225.20274-4.71354,20.42536c5.01564,2.34751 9.57212,5.79699 16.23555,4.18982-.48935-8.03049-.36917-16.06097 1.57118-24.09146l-7.85591-2.61863-5.23727,2.09491z" fill="#5b2a2a" fill-rule="evenodd" stroke="#000" stroke-linecap="round" stroke-linejoin="round" transform="translate(-850.2579,-229.7867)"/>
<path d="m54.46764,225.72646-5.23727,13.61691" fill="#5b2a2a" fill-rule="evenodd" stroke="#000" stroke-linecap="round" stroke-linejoin="round" transform="translate(-850.2579,-229.7867)"/>
<path d="m42.42191,222.06037c-3.89758,11.77438-4.80516,24.04709-6.80846,36.13719 3.87056,2.1169 8.0197,3.78809 13.61691,3.14236 .33748-12.04573-.03253-24.09145 1.57118-36.13718l-4.71355-5.23728-3.66609,2.09491z" fill="#5b2a2a" fill-rule="evenodd" stroke="#000" stroke-linecap="round" stroke-linejoin="round" transform="translate(-850.2579,-229.7867)"/>
<path d="m-730.26274-37.23724 2.17305,11.95181 3.80285,4.34611-1.62979,8.14895-4.88938,4.88938-35.85541,4.88937-12.49507,1.62979-10.32201-2.17305h-11.40854l-7.60569-4.88938-2.71632-15.75465 5.43264-8.14895 11.40854,2.17305v3.25958l14.12486.54327 15.75464-2.71632 23.36035-7.60569 10.86528-.54327z" fill="#5b2a2a" fill-rule="evenodd" stroke="#000" stroke-linecap="round" stroke-linejoin="round"/>
<path d="m-698.21018,14.37282c10.66714-3.82219 22.119-4.94397 33.68236-3.25958-1.32418,14.5965-2.60149,29.10109-5.95805,43.28388 1.88915,19.03456 1.86804,20.60881-7.62355,36.03263-3.28368,1.54923-7.41744,4.51525-8.69222,2.71631l3.25958-10.86527-9.23548,11.95182c-2.35088.71456-4.51179.85919-5.43264-2.71634 8.06216-13.15047 10.84117-11.71745 7.06243-26.07666l-4.88937,11.95181c-1.87895-.92214-4.6409-.29902-3.80285-5.97589-.0638-11.50208 3.76184-20.19538 9.23548-29.87952l-7.60569-27.16319z" fill="#5b2a2a" fill-rule="evenodd" stroke="#000" stroke-linecap="round" stroke-linejoin="round"/>
<path d="m-843.26161,19.80545c13.40388-2.5099 14.23515-5.14911 25.53339,1.62979-4.64751,14.46912-7.78859,28.64559-6.76452,45.37571l-1.38444,10.0372c.51025,4.28842-5.5618,3.04632-8.42058,5.43266-3.0785-.36219-6.42863-1.8109-9.50712-2.17308-8.90218-18.01121-7.37753-15.16384 1.62979-32.05255l-1.08652-28.24973z" fill="#5b2a2a" fill-rule="evenodd" stroke="#000" stroke-linecap="round" stroke-linejoin="round"/>
<g transform="matrix(-1.13578,0,0,1.13578,-670.7178,-418.2935)">
<path d="m82.26543,199.17903-14.96875,24.5 1.40625,16.21875c5.59449,9.92556 15.42087,16.43904 25.46875,21.28125 3.83517-.02642 7.83215.09999 9.0625-2.53125 4.42404-7.46713 8.50574-15.46632 11.59375-24.9375 .82756-4.52689 1.05497-8.86104.15625-12.8125l.3125-.25 .1875-10.9375-33.21875-10.53125z" fill="#ffae53" fill-rule="evenodd"/>
<path d="m88.89043,166.46028c-.54602,2.85507.03373,8.21508-1.22229,9.4815-3.31675-1.75191-5.93421-6.82852-10.00581-4.60403-2.48296,1.10109-8.42452-.64772-9.01366,1.46378 2.06132,1.85102 6.98074,6.34181 1.4529,4.18126-3.79436-1.63334-7.50892-2.69847-11.5308-1.16095-4.46939-.37147-11.88498,1.16424-11.36469,5.26216 4.42397-1.51234 9.52482-2.81379 13.87893-.41678 2.48192.86746 8.54941,3.72396 2.66478,3.16883-3.60285-.36139-7.22559-.86455-10.42437,1.1488-6.4431,2.51838-12.55555,6.24733-19.60734,6.74724-5.10113.62409 4.35631,1.53383 6.22139,2.28513 3.55859.06184 6.89974,2.09314 4.20967,5.69749-2.16987,7.48378-6.75373,13.867-10.41496,20.65182 3.85661-2.48528 9.25929-9.66884 12.34049-9.35163-.71915,2.5936-2.76257,4.56257-3.2614,7.26543l-4.07909,12.0862c-.07717,2.7193-2.32451,7.32766-3.26963,10.80155-.5408,1.7226-2.07593,5.18602.18691,1.98342 2.35022-2.44353 4.60818-5.80952 6.83272-7.87872 .01017,2.05665-1.08977,9.69814.44897,4.21606 .34336-3.30633 1.89226-4.92949 5.07335-4.06914 1.88785-.35526 4.53098-1.87259 2.56844,1.47829-.56083,2.80672-3.18197,8.94236-2.4263,9.62366 2.8661-2.64966 5.90579-5.12213 8.55429-7.99887 1.03639,4.30184.46048,8.77827.03125,13.125l5.53125-4.5625c-2.26764,6.09499 4.83612-2.98045 5.19676.53913-1.45325,4.79037 5.34269-.69656 3.49408-3.15796-.90892-4.75416.35797-9.51941.93938-14.23061 .35411-2.8281 1.65423-5.40667 2.36978-8.11931 1.65401,3.11173.43918,8.97144 1,13.09375 .86164,3.56814 2.86798,11.17807 3.5703,12.02542 .08057-8.45639.16167-16.91278.2422-25.36917 2.00955-5.6888 4.37827-11.24071 6.53125-16.875 3.03901,1.05461 5.19963.7108 7.90944,1.2177 1.48368.30498 4.27245.83939 3.1954,1.02498 2.10417-.36272 4.00747.45011 5.07577,2.32892 2.65704,2.51879 5.14426,5.27481 6.14914,8.85953 .6157-1.90514-.38521-7.92604.78934-7.44672 4.79422,6.93513 9.93837,13.61957 15.16216,20.23434-.02183-1.93915-3.01842-8.17803.75643-4.78637 1.68669-.96988-1.74461-6.43602-2.00643-9.07301-1.51039-3.41092-1.42271-7.94658-4.44757-10.29265l-3.80243-12.87922c5.33772-1.5692 7.35113,3.67733 10.262,7.08879 1.40695,1.80856 3.215,4.7465 2.2576.65502-.50491-3.86691-3.5537-6.73641-5.25864-10.13842-.49819-1.74361-7.67791-.78699-5.98348-1.8948 .49575-.60214-1.91815-3.42918-2.89666-4.98621-.97891-1.43833-2.92341-3.32136.30668-2.81813-3.26469-4.29393-7.4502-6.2431-12.75517-4.87461-2.59558-.68405-7.76807,2.83718-6.25169-1.92228 .82046-4.1186-2.9209-6.05535-5.18064-8.82811z" fill="#955318" fill-rule="evenodd"/>
<path d="m113.31557,220.61761c-5.82303-.3298-7.01053,1.67744-9.82187,6.29606 .70966.49818 1.21093,1.64663 2.05878,1.71359l4.23729-.70622" fill="#fff" fill-rule="evenodd"/>
<path d="m95.43473,229.18026c-4.24735-3.86591-7.65933-1.85014-12.7888-.37189-1.18556.30617-.01953,2.09439.87847,2.97767 .34608.54383 4.43836,3.31256 8.54444,1.70782" fill="#fff" fill-rule="evenodd"/>
<path d="m93.67183,228.67657c-.76467,6.26371-6.75826,5.68506-7.55528,1.51106" fill="#325a1e" fill-rule="evenodd"/>
<path d="m112.05635,221.87682c2.83633,4.38819-4.34346,8.1228-6.04422,3.27395" fill="#325a1e" fill-rule="evenodd"/>
<path d="m121.87822,216.33628 3.27396,1.7629-3.77764-11.83661-6.29607-11.08108-3.02212-1.51106-7.05159.75553" fill="#955318" fill-rule="evenodd"/>
<path d="m111.55267,185.35962 2.26658-.75553-1.25921-1.25921-2.26658-1.00737" fill="#955318" fill-rule="evenodd"/>
<path d="m47.33277,210.54389-7.30344,9.31819-6.54791,15.11056 5.54054-4.78501" fill="#955318" fill-rule="evenodd"/>
<path d="m64.20623,220.61761c-1.3114-.54341-2.5953-1.34794-3.92377-1.72918-2.76436.31688-3.59954,1.16967-4.33773,3.78795 .82328,6.51947 1.91902,11.52824 7.50597,14.81469" fill="#ebcfab" fill-rule="evenodd"/>
<path d="m87.03359,227.32429c-1.11661.72502-1.08655,1.6117-1.21542,2.83596 2.80295.58433 4.81379.53036 7.29249-.70899l.60771-1.62055c-2.26885-1.15353-4.27597-.84098-6.68478-.50642z" fill="#1f8e1f" fill-rule="evenodd"/>
<path d="m105.56867,223.57676 .6077,1.62055c2.63178.35012 4.71018-.96314 5.77323-3.2411l-.81028-1.11414c-2.43587-.0184-3.78985,1.27189-5.57065,2.73469z" fill="#1f8e1f" fill-rule="evenodd"/>
<path d="m89.86956,228.84355c.00015.89134-.58459,1.61551-1.30879,1.62087s-1.31597-.71013-1.32452-1.60141 .56934-1.62374 1.29345-1.63942 1.32257.69131 1.3395,1.58241" fill="#fff" fill-rule="evenodd"/>
<path d="m109.01236,223.52611c4e-005,.80778-.42733,1.46397-.95656,1.46871s-.96161-.64375-.96778-1.45147 .41619-1.47143.94534-1.48553 .96644.6267.97874,1.43426" fill="#fff" fill-rule="evenodd"/>
<path d="m114.82662,220.11392c1.12601,4.15783.88248,8.77218 0,13.59951-3.08801,9.47118-7.16072,17.46529-11.58476,24.93243-1.23035,2.63124-5.23117,2.49201-9.06634,2.51843-10.08988-3.19053-16.25835-9.64889-22.414-16.11793" fill="none" stroke="#000" stroke-linecap="round" stroke-linejoin="round"/>
<path d="m113.31557,220.61761c-5.82303-.3298-7.01053,1.67744-9.82187,6.29606 .70966.49818 1.21093,1.64663 2.05878,1.71359l4.23729-.70622" fill="none" stroke="#000" stroke-linecap="round" stroke-linejoin="round"/>
<path d="m94.42736,223.63972c-5.35623-4.1217-9.98775-1.15835-15.86609.75553" fill="none" stroke="#000" stroke-linecap="round" stroke-linejoin="round"/>
<path d="m95.43473,229.18026c-4.24735-3.86591-7.73095-2.35147-12.86042-.87323-1.18555.30618-1.4161.87687-.5181,1.76016 .34608.54383 1.5736,2.09503 1.91968,2.63886" fill="none" stroke="#000" stroke-linecap="round" stroke-linejoin="round"/>
<path d="m93.67183,228.67657c-.76467,6.26371-6.75826,5.68506-7.55528,1.51106" fill="none" stroke="#000" stroke-linecap="round" stroke-linejoin="round"/>
<path d="m112.05635,221.87682c2.83633,4.38819-4.34346,8.1228-6.04422,3.27395" fill="none" stroke="#000" stroke-linecap="round" stroke-linejoin="round"/>
<path d="m106.51581,241.01687c-2.21234,2.78354-3.28403,2.96598-6.54791,2.26658" fill="none" stroke="#000" stroke-linecap="round" stroke-linejoin="round"/>
<path d="m103.43073,227.92104c.1032,2.46683-.33345,5.23507 1.07034,7.0516" fill="none" stroke="#000" stroke-linecap="round" stroke-linejoin="round"/>
<path d="m106.51581,246.05373c-3.5134,2.48514-7.33001,4.28981-10.82923,4.02947" fill="none" stroke="#000" stroke-linecap="round" stroke-linejoin="round"/>
<path d="m103.17889,251.15354c-.90851,1.5079-2.82846,2.00169-4.21836,2.70731" fill="none" stroke="#000" stroke-linecap="round" stroke-linejoin="round"/>
<path d="m64.20623,220.61761c-1.3114-.54341-2.5953-1.34794-3.92377-1.72918-2.76436.31688-3.59954,1.16967-4.33773,3.78795 .82328,6.51947 1.91902,11.52824 7.50597,14.81469" fill="#ffae53" fill-rule="evenodd" stroke="#000" stroke-linecap="round" stroke-linejoin="round"/>
<path d="m60.68043,230.43947c-.51023-2.71019.67512-3.18046 1.84994-4.60631-.40956-2.39605-.93356-2.9793-3.10915-3.7045" fill="none" stroke="#000" stroke-linecap="round" stroke-linejoin="round"/>
<path d="m105.00476,221.37313c2.69438-4.05954 4.76913-4.28132 9.31818-4.28132" fill="none" stroke="#000" stroke-linecap="round" stroke-linejoin="round"/>
<path d="m91.40525,206.26257-5.79238-1.25922-6.54792,16.62163-.25184,26.44349-3.5258-12.3403-.50368-19.14005 5.79238-21.65848 4.78501-3.02211 7.80713,6.79976" fill="none" stroke="#000" stroke-linecap="round" stroke-linejoin="round"/>
<path d="m96.19026,207.26994 2.77027-.75553 7.30344,7.80713 1.7629,4.53317 .25184-8.56266 6.79976,9.57003 8.81449,11.33292-1.51105-6.79975-5.79239-12.08846-1.00737-4.28132-3.77764-2.01474" fill="none" stroke="#000" stroke-linecap="round" stroke-linejoin="round"/>
<path d="m122.13006,224.89893 3.5258,2.01474-5.79238-18.38452-16.87346-12.84398-3.5258.50369" fill="none" stroke="#000" stroke-linecap="round" stroke-linejoin="round"/>
<path d="m121.87822,216.33628 3.27396,1.7629-3.77764-11.83661-6.29607-11.08108-3.02212-1.51106-7.05159.75553" fill="none" stroke="#000" stroke-linecap="round" stroke-linejoin="round"/>
<path d="m112.56004,194.17412h6.54791l8.05897,10.32555-.50369-4.53317-5.54054-9.06634-5.28869-.25184-6.29607-3.77764-10.5774-.75553-7.30344,2.51843-1.00737,3.02211" fill="none" stroke="#000" stroke-linecap="round" stroke-linejoin="round"/>
<path d="m116.08584,190.14463-1.7629-3.27395-7.30344-3.77764-3.02211-.50369" fill="none" stroke="#000" stroke-linecap="round" stroke-linejoin="round"/>
<path d="m111.55267,185.35962 2.26658-.75553-1.25921-1.25921-2.26658-1.00737" fill="none" stroke="#000" stroke-linecap="round" stroke-linejoin="round"/>
<path d="m106.26397,182.84119 6.79976-.75553-4.02949-3.77764-1.7629-1.51105-12.08845.75552-3.77764,1.7629" fill="none" stroke="#000" stroke-linecap="round" stroke-linejoin="round"/>
<path d="m94.17552,177.55249-.25184-5.79238-5.03686-5.2887-.75553,9.82187-7.55528-5.79238-3.27395,1.00737-9.31819.50368 6.29607,6.54792 1.25922,6.29606 9.06633,1.00737 1.25922,2.01475" fill="none" stroke="#000" stroke-linecap="round" stroke-linejoin="round"/>
<path d="m74.53178,181.07829-12.08845,15.11057-4.28132,7.80712" fill="none" stroke="#000" stroke-linecap="round" stroke-linejoin="round"/>
<path d="m69.24309,187.87805-9.57003,3.77764-15.61425,3.27395-12.59214-2.77027 8.56266-1.51105 17.12531-7.30344 10.07371.75553" fill="none" stroke="#000" stroke-linecap="round" stroke-linejoin="round"/>
<path d="m70.25046,184.85593-11.58477-5.28869-5.2887-.25185-7.05159,2.01475 3.5258-4.78502 9.57002-.75553 4.28133-1.00737 8.05896,2.77027" fill="none" stroke="#000" stroke-linecap="round" stroke-linejoin="round"/>
<path d="m45.82171,194.92964-4.02948,11.33293-8.05897,14.10319 11.08108-9.57002 4.53317-2.77027" fill="none" stroke="#000" stroke-linecap="round" stroke-linejoin="round"/>
<path d="m53.12515,201.47756-2.51843,10.82923-2.77027,22.66585-.25184,3.77764 6.79975-13.59951 1.00738-1.25921" fill="none" stroke="#000" stroke-linecap="round" stroke-linejoin="round"/>
<path d="m64.70992,214.82522 8.81449-15.11056 4.53317-3.77764" fill="none" stroke="#000" stroke-linecap="round" stroke-linejoin="round"/>
<path d="m77.80574,188.12989-8.05897,6.04423-9.31818,15.3624-5.03685,6.54792-3.27396,6.04422" fill="none" stroke="#000" stroke-linecap="round" stroke-linejoin="round"/>
<path d="m57.15464,213.81785v-3.77764" fill="none" stroke="#000" stroke-linecap="round" stroke-linejoin="round"/>
<path d="m47.33277,210.54389-7.30344,9.31819-6.54791,15.11056 5.54054-4.78501" fill="none" stroke="#000" stroke-linecap="round" stroke-linejoin="round"/>
<path d="m46.3254,213.81785-7.0516,16.11794-5.03686,14.85872 7.55529-8.8145" fill="none" stroke="#000" stroke-linecap="round" stroke-linejoin="round"/>
<path d="m47.83645,220.36576-5.28869,14.35504-.50369,7.30344 3.02211-8.56266 2.51843-4.78501" fill="none" stroke="#000" stroke-linecap="round" stroke-linejoin="round"/>
<path d="m51.36225,234.21711-3.77764,12.84398 8.31081-7.55528 3.5258-4.28133" fill="none" stroke="#000" stroke-linecap="round" stroke-linejoin="round"/>
<path d="m57.65832,239.75765-1.25921,12.59214 6.79975-9.06634 2.26659-7.55528 2.26658-5.54054" fill="none" stroke="#000" stroke-linecap="round" stroke-linejoin="round"/>
<path d="m65.71729,216.08444-1.25922,5.79238-.75552,10.82924-.50369,3.27395" fill="none" stroke="#000" stroke-linecap="round" stroke-linejoin="round"/>
<path d="m62.94702,244.03898-1.25922,5.54054 5.03686-2.77027" fill="none" stroke="#000" stroke-linecap="round" stroke-linejoin="round"/>
<path d="m74.53178,204.24783-4.78501,14.35503-2.51842,12.59214 .25184,18.88821 3.77764-3.27396-.75553-6.04422 1.51106-11.83661 2.26658-6.54792" fill="none" stroke="#000" stroke-linecap="round" stroke-linejoin="round"/>
</g>
<path d="m-680.82574-43.7564-15.21138-1.08653-18.47097,7.60569" fill="#4d5869" fill-rule="evenodd" stroke="#000" stroke-linecap="round" stroke-linejoin="round"/>
<path d="m-723.20031-68.20327 19.01423,19.01423" fill="#4d5869" fill-rule="evenodd" stroke="#000" stroke-linecap="round" stroke-linejoin="round"/>
<path d="m-712.33504-72.54938 13.5816,22.27381" fill="#4d5869" fill-rule="evenodd" stroke="#000" stroke-linecap="round" stroke-linejoin="round"/>
<path d="m-712.8783-20.93932 15.21139-10.86528" fill="#4d5869" fill-rule="evenodd" stroke="#000" stroke-linecap="round" stroke-linejoin="round"/>
<path d="m-672.13352-33.97765-17.38444-5.43264" fill="#4d5869" fill-rule="evenodd" stroke="#000" stroke-linecap="round" stroke-linejoin="round"/>
<path d="m-714.50809-28.00175 13.03833-6.51917" fill="#4d5869" fill-rule="evenodd" stroke="#000" stroke-linecap="round" stroke-linejoin="round"/>
<path d="m-832.9396-38.32377c9.17555,1.15155 17.56766,7.81025 25.5334,2.71632" fill="#4d5869" fill-rule="evenodd" stroke="#000" stroke-linecap="round" stroke-linejoin="round"/>
<path d="m-819.90127-65.48695 6.51916,27.16318" fill="#4d5869" fill-rule="evenodd" stroke="#000" stroke-linecap="round" stroke-linejoin="round"/>
<path d="m-822.07433-55.70821 2.71632,17.92771" fill="#4d5869" fill-rule="evenodd" stroke="#000" stroke-linecap="round" stroke-linejoin="round"/>
<path d="m-728.63295-31.26134-32.05257,13.03834" fill="#4d5869" fill-rule="evenodd" stroke="#000" stroke-linecap="round" stroke-linejoin="round"/>
<path d="m-794.36787-27.45849-7.06243,7.60569 4.34611,8.14896 7.06243,8.14896" fill="none" stroke="#000" stroke-linecap="round" stroke-linejoin="round"/>
<path d="m-726.4599-22.56912-31.5093,11.40854" fill="none" stroke="#000" stroke-linecap="round" stroke-linejoin="round"/>
<path d="m-800.34377-19.8528 22.27381,5.97591" fill="none" stroke="#000" stroke-linecap="round" stroke-linejoin="round"/>
<path d="m-799.25725-4.09815-9.23548-15.21138" fill="none" stroke="#000" stroke-linecap="round" stroke-linejoin="round"/>
<path d="m-831.58144,79.56448-1.62979-11.40854" fill="none" stroke="#000" stroke-linecap="round" stroke-linejoin="round"/>
<path d="m-835.65592,71.41552 3.25958,4.34611" fill="none" stroke="#000" stroke-linecap="round" stroke-linejoin="round"/>
<path d="m-838.9155,80.651-5.70427-10.05038" fill="none" stroke="#000" stroke-linecap="round" stroke-linejoin="round"/>
<path d="m-841.90345,48.05518 5.9759,4.61774" fill="none" stroke="#000" stroke-linecap="round" stroke-linejoin="round"/>
<path d="m-674.84984,78.20632-7.60569,14.39649" fill="none" stroke="#000" stroke-linecap="round" stroke-linejoin="round"/>
<path d="m-673.76331-20.93932 3.25958,33.13909c-5.1381,6.92715-14.83675,4.73319-23.36034,4.88937l-14.12486-35.31214 10.86528-9.77875 21.18729,3.25958 2.17305,3.80285z" fill="#ffae53" fill-rule="evenodd" stroke="#000" stroke-linecap="round" stroke-linejoin="round"/>
<path d="m-691.14775-78.52529-1.62979,15.21139" fill="#969796" fill-rule="evenodd" stroke="#000" stroke-linecap="round" stroke-linejoin="round"/>
<path d="m-826.42044-31.8046 10.86528,9.23548" fill="#969796" fill-rule="evenodd" stroke="#000" stroke-linecap="round" stroke-linejoin="round"/>
<path d="m-771.55079-6.81447-24.44687-3.80284" fill="#969796" fill-rule="evenodd" stroke="#000" stroke-linecap="round" stroke-linejoin="round"/>
<path d="m-820.44453-12.79037 1.62979,16.84118" fill="#969796" fill-rule="evenodd" stroke="#000" stroke-linecap="round" stroke-linejoin="round"/>
<path d="m-691.14775,39.36296 12.49507,9.23548" fill="#969796" fill-rule="evenodd" stroke="#000" stroke-linecap="round" stroke-linejoin="round"/>
<path d="m-782.41607-102.4289c-.85948,3.21864.52326,6.04037 2.17306,8.69223 2.29661,1.93483 4.89603,1.23219 7.60569,1.08653 1.01542-2.36818.95296-5.07879.20151-7.51233-2.53018-2.66011-6.54346-3.21375-9.98026-2.26643z" fill="#969796" fill-rule="evenodd" stroke="#000" stroke-linecap="round" stroke-linejoin="round"/>
<path d="m-749.28741-126.31793c2.61573,1.0353 2.04633,2.38912 1.09375,3.78125-11.42484,8.37803-20.31287,11.53178-27.40625,10.9375l.5,6.34375c9.54871-.56661 23.25498-7.25167 29.6274-14.8341l1.90864,2.70674c-7.69556,3.99038-9.62694,16.99316-35.03847,16.58889-2.32298-1.08895-9.34809-4.09778-11.67785-5.97354-.40584-1.08459-1.52363-2.25817.8125-3 2.0874,1.84075 5.57577,3.50058 8.21153,4.07451l.125-7.25c-2.04767-.85584-3.90916-2.0818-5.625-3.625-.34853-1.75098-.83986-3.60906 1.625-3.25 10.5205,9.27741 23.20877,1.13845 35.84375-6.5z" fill="#969796" fill-rule="evenodd" stroke="#000" stroke-linecap="round" stroke-linejoin="round"/>
<path d="m-701.46976-104.60195c-2.95397-13.48438-22.9748-14.79108-35.85541-19.01423-18.83241,5.95296-26.69948,28.93448-36.94194,45.63416l38.02846,11.95179c12.64345-16.00509 15.61003-30.90818 34.76889-38.57172z" fill="#4d4d4d" fill-rule="evenodd" stroke="#000" stroke-linecap="round" stroke-linejoin="round"/>
<path d="m-786.62636-116.28212-1.22235-.54326-1.49397,6.92661 7.87732,4.34611 .40745-7.33406-5.56845-3.3954z" fill="#4d5869" fill-rule="evenodd" stroke="#000" stroke-linecap="round" stroke-linejoin="round"/>
<path d="m-778.47741-115.46722-.13581,14.39649" fill="#4d5869" fill-rule="evenodd" stroke="#000" stroke-linecap="round" stroke-linejoin="round"/>
<path d="m-710.23549-115.22784c-16.37018,11.09809-22.45607,26.57876-30.53956,42.06393l-23.81703-6.72255c7.82045-16.04241 14.1188-33.09956 32.26823-42.256" fill="none" stroke="#000" stroke-linecap="round" stroke-linejoin="round"/>
<path d="m-792.82677-118.301c-3.54737,11.3738-4.96802,23.27928-6.53048,35.14931l-9.41156,2.68902c-1.05075-11.33229-3.21935-22.66459-1.92073-33.99688" fill="none" stroke="#000" stroke-linecap="round" stroke-linejoin="round"/>
<path d="m57.61,227.29765-5.23727,16.23554" fill="#5b2a2a" fill-rule="evenodd" stroke="#000" stroke-linecap="round" stroke-linejoin="round" transform="translate(-850.2579,-229.7867)"/>
<path d="m-804.82455-5.50047-5.23727,27.23382" fill="#5b2a2a" fill-rule="evenodd" stroke="#000" stroke-linecap="round" stroke-linejoin="round"/>
<path d="m47.79012,225.20274-2.09491,26.97195" fill="#5b2a2a" fill-rule="evenodd" stroke="#000" stroke-linecap="round" stroke-linejoin="round" transform="translate(-850.2579,-229.7867)"/>
</g>
</svg>
