<?xml version="1.0" encoding="UTF-8" standalone="no"?>
<svg
   xmlns:dc="http://purl.org/dc/elements/1.1/"
   xmlns:cc="http://creativecommons.org/ns#"
   xmlns:rdf="http://www.w3.org/1999/02/22-rdf-syntax-ns#"
   xmlns:svg="http://www.w3.org/2000/svg"
   xmlns="http://www.w3.org/2000/svg"
   viewBox="0 0 296.53751 396.625"
   height="396.625"
   width="296.53751"
   xml:space="preserve"
   version="1.1"
   id="svg9441"><metadata
     id="metadata9447"><rdf:RDF><cc:Work
         rdf:about=""><dc:format>image/svg+xml</dc:format><dc:type
           rdf:resource="http://purl.org/dc/dcmitype/StillImage" /><dc:title></dc:title></cc:Work></rdf:RDF></metadata><defs
     id="defs9445"><clipPath
       id="clipPath9459"
       clipPathUnits="userSpaceOnUse"><path
         id="path9461"
         d="m 1645.77,1500.68 260.97,-516.821 c -9.01,-4.433 -18.88,-10.644 -29.74,-18.859 60,-38 -27,-161 82,-135 27,-161 43,-319 72,-485 -102,-108 -255,-116 -370,-196 -194,-34 -380,87 -581,76 21,98 41,209 68,312 -15,132 -11,256 -48,394 57,32 146,-8 192,53 111,69 170,197 216,317 l 137.77,199.68" /></clipPath><radialGradient
       id="radialGradient9463"
       spreadMethod="pad"
       gradientTransform="matrix(1555.4,688.85,688.85,-1555.4,351.333,295)"
       gradientUnits="userSpaceOnUse"
       r="1"
       cy="0"
       cx="0"
       fy="0"
       fx="0"><stop
         id="stop9465"
         offset="0"
         style="stop-opacity:1;stop-color:#e6ebe6" /><stop
         id="stop9467"
         offset="1"
         style="stop-opacity:1;stop-color:#ffffff" /></radialGradient><clipPath
       id="clipPath9475"
       clipPathUnits="userSpaceOnUse"><path
         id="path9477"
         d="m 1443.7,2120.85 c 18.46,-66.88 32.78,-134.73 30.3,-200.85 -1,-47 -54,-115 0,-163 l 82,-101 c 5.75,-5.75 11.52,-9.57 17.32,-11.86 L 1645.77,1500.68 1508,1301 c -16,27 -41,-8 -63,-10 -26,-26 -90,-38 -72,-101 -41,-50 -132,-27 -149,-110 -172,-30 -345,18 -518,0 C 587,992 452,909 308,888 c -75,-3 -95,92 -154,129 -8,51 -102,64 -67,135 90,66 173,117 269,168 148,193 366,337 537,518 11,58 67,85 91,154 88,-45 204,-31 308,-58 72,41 109,99 153,163 l -1.3,23.85" /></clipPath><radialGradient
       id="radialGradient9479"
       spreadMethod="pad"
       gradientTransform="matrix(1533.33,366.669,366.669,-1533.33,84.667,1121.67)"
       gradientUnits="userSpaceOnUse"
       r="1"
       cy="0"
       cx="0"
       fy="0"
       fx="0"><stop
         id="stop9481"
         offset="0"
         style="stop-opacity:1;stop-color:#ffdce1" /><stop
         id="stop9483"
         offset="0.48606401"
         style="stop-opacity:1;stop-color:#ffffff" /><stop
         id="stop9485"
         offset="0.533708"
         style="stop-opacity:1;stop-color:#ffffff" /><stop
         id="stop9487"
         offset="0.72723646"
         style="stop-opacity:1;stop-color:#ffffff" /><stop
         id="stop9489"
         offset="1"
         style="stop-opacity:1;stop-color:#e6ebe6" /></radialGradient><clipPath
       id="clipPath9497"
       clipPathUnits="userSpaceOnUse"><path
         id="path9499"
         d="m 1443.7,2120.85 c -18.69,67.65 -41.62,134.29 -55.7,197.15 -119,-44 -219,-90 -332,-86 -44,-39 -25,-93 -9,-139 125,-64 265,-22 398,4 l -1.3,23.85" /></clipPath><linearGradient
       id="linearGradient9501"
       spreadMethod="pad"
       gradientTransform="matrix(-26.666,179.999,451.532,66.893,1016.4,2027.85)"
       gradientUnits="userSpaceOnUse"
       y2="0"
       x2="1"
       y1="0"
       x1="0.0056179999"><stop
         id="stop9503"
         offset="0"
         style="stop-opacity:1;stop-color:#bcc9b1" /><stop
         id="stop9505"
         offset="0.522472"
         style="stop-opacity:1;stop-color:#e6ebd2" /><stop
         id="stop9507"
         offset="1"
         style="stop-opacity:1;stop-color:#ffffff" /></linearGradient><clipPath
       id="clipPath9515"
       clipPathUnits="userSpaceOnUse"><path
         id="path9517"
         d="m 1556,1656 c 9,69 76,110 139,125 57,28 128,43 192,43 23,29 -21,29 -24,53 13,27 48,8 62,24 -20,64 31,68 48,115 9,99 53,206 43,297 -30,64 -74,-3 -110,-4 -112,-75 -212,-149 -293,-250 -9,-37 39,-60 15,-91 -68,-31 -87,-121 -96,-183 -17,-16 -36,-26 -58,-28 l 82,-101" /></clipPath><linearGradient
       id="linearGradient9519"
       spreadMethod="pad"
       gradientTransform="matrix(-453.332,-559.994,-312.002,252.575,2150.59,2117.82)"
       gradientUnits="userSpaceOnUse"
       y2="0"
       x2="1"
       y1="0"
       x1="0.0056179999"><stop
         id="stop9521"
         offset="0"
         style="stop-opacity:1;stop-color:#ffdce1" /><stop
         id="stop9523"
         offset="0.91073022"
         style="stop-opacity:1;stop-color:#e6ebe6" /><stop
         id="stop9525"
         offset="1"
         style="stop-opacity:1;stop-color:#e6ebe6" /></linearGradient><clipPath
       id="clipPath9533"
       clipPathUnits="userSpaceOnUse"><path
         id="path9535"
         d="M 1906.74,983.859 C 2027.14,1043.12 1992.47,784.59 2079,739 c 6,-133 -11,-252 9,-379 83,27 155,79 240,72 32,72 -60,134 -14,206 -94,262 -268,473 -346,730 -103,98 -199,233 -297,307 -33.79,-10.98 -66.14,-43.36 -97.68,-30.86 l 333.42,-660.281" /></clipPath><linearGradient
       id="linearGradient9537"
       spreadMethod="pad"
       gradientTransform="matrix(333.332,-600.002,-371.193,-206.217,1790.22,1729.19)"
       gradientUnits="userSpaceOnUse"
       y2="0"
       x2="1"
       y1="0"
       x1="0.52247202"><stop
         id="stop9539"
         offset="0"
         style="stop-opacity:1;stop-color:#e6ebd2" /><stop
         id="stop9541"
         offset="1"
         style="stop-opacity:1;stop-color:#ffffed" /></linearGradient><clipPath
       id="clipPath9549"
       clipPathUnits="userSpaceOnUse"><path
         id="path9551"
         d="m 1119,2990 43,-120 c -30,-5 -52,-25 -62,-53 14,-69 64,5 100,-19 20,-57 81,-102 72,-168 -48,-3 -98,-13 -144,-9 -22,-16 -36,-44 -24,-68 70,-57 125,30 197,20 -7,-76 101,-159 29,-207 -83,-49 -180,-42 -269,-43 -17,203 -1,403 -19,605 42,44 28,103 48,153 23,-28 17,-61 29,-91" /></clipPath><linearGradient
       id="linearGradient9553"
       spreadMethod="pad"
       gradientTransform="matrix(93.334,-373.332,-381.156,-95.29,1323.28,2811.32)"
       gradientUnits="userSpaceOnUse"
       y2="0"
       x2="1"
       y1="0"
       x1="0"><stop
         id="stop9555"
         offset="0"
         style="stop-opacity:1;stop-color:#ffffff" /><stop
         id="stop9557"
         offset="0.129213"
         style="stop-opacity:1;stop-color:#e6ebd2" /><stop
         id="stop9559"
         offset="0.393258"
         style="stop-opacity:1;stop-color:#bcc9b1" /><stop
         id="stop9561"
         offset="0.646067"
         style="stop-opacity:1;stop-color:#ffffff" /><stop
         id="stop9563"
         offset="0.831461"
         style="stop-opacity:1;stop-color:#e6ebd2" /><stop
         id="stop9565"
         offset="1"
         style="stop-opacity:1;stop-color:#bcc9b1" /></linearGradient></defs><g
     transform="matrix(1.25,0,0,-1.25,0,396.625)"
     id="g9449"><g
       transform="scale(0.1,0.1)"
       id="g9451"><path
         id="path9453"
         style="fill:#000000;fill-opacity:1;fill-rule:nonzero;stroke:none"
         d="m 1157,3173 c 4,-198 204,-315 216,-514 l 34,5 c 30,-175 96,-401 173,-547 76,120 237,218 360,307 28,15 73,11 105,5 76,-96 -14,-192 15,-288 -39,-112 -87,-252 -106,-380 -32,-54 -86,-24 -139,-48 56,-120 175,-224 249,-336 29,-228 216,-387 293,-609 -26,-130 45,-275 0,-413 -19,23 -48,74 -96,58 -45,-62 -152,-14 -173,-96 23,-15 44,6 68,4 C 1946,222 1728,116 1527,0 1343,92 1185,81 994,149 c -23,120 101,205 96,321 -1,145 10,305 -53,456 C 934,939 803,960 687,974 651,927 586,901 576,845 468,829 377,758 264,763 202,792 170,836 130,888 51,947 51,1053 0,1133 c -1,32 28,52 34,81 347,239 652,555 936,883 22,290 -8,593 38,888 36,46 -13,105 58,135 59,-34 42,60 91,53" /><g
         id="g9455"><g
           clip-path="url(#clipPath9459)"
           id="g9457"><path
             id="path9469"
             style="fill:url(#radialGradient9463);fill-opacity:1;fill-rule:nonzero;stroke:none"
             d="m 1645.77,1500.68 260.97,-516.821 c -9.01,-4.433 -18.88,-10.644 -29.74,-18.859 60,-38 -27,-161 82,-135 27,-161 43,-319 72,-485 -102,-108 -255,-116 -370,-196 -194,-34 -380,87 -581,76 21,98 41,209 68,312 -15,132 -11,256 -48,394 57,32 146,-8 192,53 111,69 170,197 216,317 l 137.77,199.68" /></g></g><g
         id="g9471"><g
           clip-path="url(#clipPath9475)"
           id="g9473"><path
             id="path9491"
             style="fill:url(#radialGradient9479);fill-opacity:1;fill-rule:nonzero;stroke:none"
             d="m 1443.7,2120.85 c 18.46,-66.88 32.78,-134.73 30.3,-200.85 -1,-47 -54,-115 0,-163 l 82,-101 c 5.75,-5.75 11.52,-9.57 17.32,-11.86 L 1645.77,1500.68 1508,1301 c -16,27 -41,-8 -63,-10 -26,-26 -90,-38 -72,-101 -41,-50 -132,-27 -149,-110 -172,-30 -345,18 -518,0 C 587,992 452,909 308,888 c -75,-3 -95,92 -154,129 -8,51 -102,64 -67,135 90,66 173,117 269,168 148,193 366,337 537,518 11,58 67,85 91,154 88,-45 204,-31 308,-58 72,41 109,99 153,163 l -1.3,23.85" /></g></g><g
         id="g9493"><g
           clip-path="url(#clipPath9497)"
           id="g9495"><path
             id="path9509"
             style="fill:url(#linearGradient9501);fill-opacity:1;fill-rule:nonzero;stroke:none"
             d="m 1443.7,2120.85 c -18.69,67.65 -41.62,134.29 -55.7,197.15 -119,-44 -219,-90 -332,-86 -44,-39 -25,-93 -9,-139 125,-64 265,-22 398,4 l -1.3,23.85" /></g></g><g
         id="g9511"><g
           clip-path="url(#clipPath9515)"
           id="g9513"><path
             id="path9527"
             style="fill:url(#linearGradient9519);fill-opacity:1;fill-rule:nonzero;stroke:none"
             d="m 1556,1656 c 9,69 76,110 139,125 57,28 128,43 192,43 23,29 -21,29 -24,53 13,27 48,8 62,24 -20,64 31,68 48,115 9,99 53,206 43,297 -30,64 -74,-3 -110,-4 -112,-75 -212,-149 -293,-250 -9,-37 39,-60 15,-91 -68,-31 -87,-121 -96,-183 -17,-16 -36,-26 -58,-28 l 82,-101" /></g></g><g
         id="g9529"><g
           clip-path="url(#clipPath9533)"
           id="g9531"><path
             id="path9543"
             style="fill:url(#linearGradient9537);fill-opacity:1;fill-rule:nonzero;stroke:none"
             d="M 1906.74,983.859 C 2027.14,1043.12 1992.47,784.59 2079,739 c 6,-133 -11,-252 9,-379 83,27 155,79 240,72 32,72 -60,134 -14,206 -94,262 -268,473 -346,730 -103,98 -199,233 -297,307 -33.79,-10.98 -66.14,-43.36 -97.68,-30.86 l 333.42,-660.281" /></g></g><g
         id="g9545"><g
           clip-path="url(#clipPath9549)"
           id="g9547"><path
             id="path9567"
             style="fill:url(#linearGradient9553);fill-opacity:1;fill-rule:nonzero;stroke:none"
             d="m 1119,2990 43,-120 c -30,-5 -52,-25 -62,-53 14,-69 64,5 100,-19 20,-57 81,-102 72,-168 -48,-3 -98,-13 -144,-9 -22,-16 -36,-44 -24,-68 70,-57 125,30 197,20 -7,-76 101,-159 29,-207 -83,-49 -180,-42 -269,-43 -17,203 -1,403 -19,605 42,44 28,103 48,153 23,-28 17,-61 29,-91" /></g></g><path
         id="path9569"
         style="fill:#000000;fill-opacity:1;fill-rule:nonzero;stroke:none"
         d="m 1186,1800 c -17,-88 -4,-168 -38,-264 -38,-21 -65,-66 -116,-48 -21,0 -54,23 -72,38 11,58 30,115 39,173 60,23 75,77 125,110 24,4 39,-38 62,-9" /><path
         id="path9571"
         style="fill:#000000;fill-opacity:1;fill-rule:nonzero;stroke:none"
         d="m 1632,1627 c 35,-186 207,-340 250,-538 -19,9 -54,-18 -67,5 6,39 -25,58 -43,91 l 4,0 c -81,123 -170,258 -187,399 11,20 16,43 43,43" /><path
         id="path9573"
         style="fill:#000000;fill-opacity:1;fill-rule:nonzero;stroke:none"
         d="m 370,1157 c 18,4 23,-21 29,-34 -21,-40 -33,-100 -82,-110 -37,13 -62,57 -81,91 3,20 19,44 33,53 33,12 72,-28 101,0" /><path
         id="path9575"
         style="fill:#000000;fill-opacity:1;fill-rule:nonzero;stroke:none"
         d="m 1896,1027 c 14,-29 -44,-50 -43,0 12,19 29,1 43,0" /></g></g></svg>